<svg width="51" height="50" viewBox="0 0 51 50" fill="none" xmlns="http://www.w3.org/2000/svg">
<g clip-path="url(#clip0_416_114)">
<path fill-rule="evenodd" clip-rule="evenodd" d="M22.3387 18.7852C17.6974 14.97 13.9366 10.4265 11.1105 5.13307C10.5453 4.07872 9.23013 3.67654 8.16492 4.24175C7.11057 4.80697 6.70832 6.12221 7.27354 7.18743C10.3822 12.9809 14.491 17.9592 19.578 22.144C20.5019 22.9048 21.8822 22.7744 22.6431 21.8505C23.404 20.9157 23.2627 19.5461 22.3387 18.7852Z" fill="#DC8E00"/>
<path fill-rule="evenodd" clip-rule="evenodd" d="M19.8638 3.92659C20.1029 8.31789 20.3204 12.7092 20.5921 17.1005C20.6682 18.2961 21.7008 19.2092 22.8965 19.1331C24.0921 19.057 25.0052 18.0244 24.9291 16.8288C24.6573 12.4483 24.4399 8.06791 24.2008 3.67661C24.1355 2.48422 23.103 1.56573 21.9073 1.63312C20.7117 1.70051 19.7877 2.72767 19.8638 3.92659Z" fill="#DC8E00"/>
<path fill-rule="evenodd" clip-rule="evenodd" d="M36.0008 4.8179C33.2181 9.01355 30.0661 12.8831 26.8922 16.7961C26.1313 17.7309 26.2725 19.1005 27.2073 19.8505C28.1421 20.6114 29.5117 20.47 30.2617 19.5353C33.5226 15.5244 36.7617 11.5352 39.6313 7.22003C40.2943 6.22003 40.0116 4.87225 39.0116 4.2092C38.0225 3.54616 36.6638 3.8179 36.0008 4.8179Z" fill="#DC8E00"/>
<path fill-rule="evenodd" clip-rule="evenodd" d="M46.7797 20.4157C39.2362 20.7527 31.2253 20.7636 23.6818 20.2853C22.4862 20.2201 21.4536 21.1223 21.3775 22.3288C21.3014 23.5244 22.2144 24.557 23.4101 24.6331C31.1057 25.1114 39.2797 25.1005 46.9754 24.7636C48.171 24.7092 49.1057 23.6875 49.0514 22.4919C48.997 21.2962 47.9753 20.3614 46.7797 20.4157Z" fill="#DC8E00"/>
<path fill-rule="evenodd" clip-rule="evenodd" d="M19.5722 21.796C24.2244 27.4916 29.0397 33.0786 33.3549 39.0352C34.0614 40.0025 35.4202 40.2199 36.3984 39.5133C37.3658 38.8068 37.5832 37.4481 36.8766 36.4807C32.5071 30.459 27.6375 24.8068 22.931 19.0459C22.1702 18.122 20.8005 17.9808 19.8766 18.7416C18.9418 19.5025 18.8114 20.8721 19.5722 21.796Z" fill="#DC8E00"/>
<path fill-rule="evenodd" clip-rule="evenodd" d="M20.9811 23.4488C22.1985 29.3836 22.5355 35.0575 22.6224 41.0684C22.6333 42.264 23.6224 43.2205 24.8181 43.2096C26.0246 43.1879 26.9811 42.2096 26.9594 41.0031C26.8724 34.7096 26.5138 28.7857 25.242 22.5683C24.992 21.3944 23.8507 20.6335 22.6659 20.8835C21.492 21.1226 20.7311 22.2749 20.9811 23.4488Z" fill="#DC8E00"/>
<path fill-rule="evenodd" clip-rule="evenodd" d="M21.1773 22.9707C17.6556 30.0141 15.8404 37.8403 12.0686 44.7316C11.4926 45.775 11.8838 47.1011 12.9381 47.6772C13.9925 48.2533 15.3078 47.8619 15.8839 46.8184C19.6774 39.8836 21.5143 32.0141 25.0686 24.9163C25.6012 23.8402 25.1664 22.5359 24.1012 21.9924C23.0251 21.4598 21.7208 21.8946 21.1773 22.9707Z" fill="#DC8E00"/>
<path fill-rule="evenodd" clip-rule="evenodd" d="M23.1155 21.3723C16.1046 22.6114 9.10459 23.1766 2.05025 24.0136C0.854594 24.1549 0.00676806 25.231 0.148072 26.4267C0.289377 27.6223 1.36556 28.4702 2.56122 28.3288C9.69165 27.4919 16.7786 26.9049 23.8764 25.6549C25.0503 25.4375 25.8438 24.3071 25.6373 23.1332C25.4199 21.9484 24.3003 21.1549 23.1155 21.3723Z" fill="#DC8E00"/>
<path fill-rule="evenodd" clip-rule="evenodd" d="M27.9938 18.0685C26.5482 18.0033 25.1786 17.9054 23.7656 17.6989C22.5699 17.525 21.4721 18.3511 21.2982 19.5359C21.1242 20.7206 21.9503 21.8294 23.135 22.0033C24.7003 22.2315 26.2112 22.3402 27.7981 22.4054C28.9938 22.4598 30.0155 21.5358 30.059 20.3293C30.1133 19.1337 29.1895 18.1228 27.9938 18.0685Z" fill="#DC8E00"/>
</g>
<defs>
<clipPath id="clip0_416_114">
<rect width="50" height="50" fill="white" transform="translate(0.0841064)"/>
</clipPath>
</defs>
</svg>
