<svg viewBox="0 0 1377 193" fill="none" xmlns="http://www.w3.org/2000/svg">
<path fill-rule="evenodd" clip-rule="evenodd" d="M0 42.9593L53.3333 30.9559C106.667 18.9525 213.333 -5.05428 320 0.947419C426.667 6.94912 533.333 42.9593 640 72.9678C746.667 102.976 853.333 126.983 960 120.981C1066.67 114.98 1173.33 78.9695 1226.67 60.9644L1379 14V120.981V193.002L1226.67 187C1173.33 187 1066.67 187 960 187C853.333 187 746.667 187 640 187C533.333 187 426.667 187 320 187C213.333 187 106.667 187 53.3333 187H0V42.9593Z" fill="#003023"/>
</svg>
