<svg width="41" height="58" viewBox="0 0 41 58" fill="none" xmlns="http://www.w3.org/2000/svg">
<path fill-rule="evenodd" clip-rule="evenodd" d="M15.8389 11.4245C15.721 10.5027 15.6322 9.59139 15.5749 8.67997C15.4884 7.31282 15.5419 5.93523 15.5112 4.56809C15.4979 3.98809 15.4452 2.47596 15.4664 2.25846C15.6589 0.363105 16.8194 0.0730697 17.1589 0.021284C17.3231 -0.00978743 19.0092 -0.258248 19.373 2.20675C19.8193 5.22068 19.9623 8.25528 19.8044 11.2278C20.1729 13.7549 20.803 16.2717 21.6351 18.5502C24.9461 27.6127 31.2554 28.4931 38.0911 28.4102C39.1424 28.3895 40.0153 29.477 40.0703 30.8545C40.1253 32.2424 39.3428 33.4438 38.2962 33.5681C34.4753 34.0549 27.6961 38.0942 25.3523 42.2992C24.862 43.1796 24.5768 45.3028 24.1997 47.3846C23.6732 50.2742 23.047 53.1328 22.3454 54.3342C22.2401 54.5206 20.9601 56.4264 20.5783 56.706C19.6606 57.3689 18.926 56.9856 18.5087 56.6335C18.0915 56.2813 17.6193 55.5874 17.4307 54.4378C17.2335 53.2363 17.4001 50.7713 17.3694 50.2431C17.2579 48.327 16.9672 44.5674 16.374 41.3359C16.0542 39.5959 15.7132 37.9906 15.149 37.1931C13.0606 34.2413 9.72131 34.6763 6.90924 35.1631C6.58631 35.2149 6.26338 35.2771 5.94124 35.3289C4.79646 35.7742 3.58093 36.1056 2.29628 36.3024C0.356354 36.6027 0.037376 34.2517 0.0200903 34.0963C-0.0160526 33.7545 -0.150424 31.9938 1.31179 31.2896C1.47129 31.2171 2.6483 30.8752 3.10166 30.7406C3.73337 30.5542 4.37215 30.4092 5.01329 30.2746C11.6361 27.561 15.2331 19.9381 15.8389 11.4245ZM18.1119 20.8392C20.6121 27.6542 24.4063 30.9478 28.9037 32.4392H28.903C26.0948 34.376 23.5404 36.7996 22.1866 39.2335C21.6728 40.1553 21.2014 42.0092 20.7763 44.091C20.5461 42.1542 20.235 40.0931 19.824 38.3323C19.3565 36.3231 18.7271 34.6557 18.0247 33.6614C16.6686 31.7453 14.9667 30.6785 13.1368 30.1503C15.3274 27.5921 16.9884 24.4021 18.1119 20.8392Z" fill="#DC8E00"/>
</svg>
