<svg width="320" height="26" viewBox="0 0 413 26" fill="none" xmlns="http://www.w3.org/2000/svg">
<path fill-rule="evenodd" clip-rule="evenodd" d="M136.601 2.23004C91.1628 1.70692 45.5395 3.61868 1.55929 11.6462C0.774605 11.7889 0.448857 12.0695 0.384656 12.1337C0.00895953 12.5141 -0.0315331 12.9183 0.0160233 13.2512C0.0445572 13.4534 0.237245 14.307 1.29062 14.395C2.01823 14.4544 7.18279 14.0383 9.1754 13.9313C18.5559 13.4296 27.9175 12.7139 37.2742 11.8864C58.4892 10.0174 79.6755 8.40049 100.924 6.92862C112.853 6.10114 124.788 5.4163 136.715 4.85514C165.408 5.19041 194.03 6.49823 222.117 7.84884C210.953 8.53603 200.695 9.23272 192.189 9.68451C177.846 10.4454 163.53 11.3442 149.215 12.5284C141.86 13.1347 134.515 13.7934 127.175 14.5709C126.362 14.6589 124.509 14.7493 123.613 14.8563C123.232 14.8991 122.957 14.968 122.833 15.0156C122.058 15.3152 121.96 15.9287 121.951 16.2378C121.946 16.4256 122.01 17.4505 123.318 17.6502C184.126 27.0236 247.567 16.1189 308.593 25.2307C309.309 25.3377 309.98 24.8431 310.087 24.125C310.194 23.4093 309.699 22.7387 308.981 22.6317C251.504 14.0502 191.885 23.2262 134.335 16.4898C139.364 16.0024 144.395 15.5625 149.431 15.1464C163.72 13.9646 178.01 13.0682 192.33 12.3073C206.739 11.544 226.218 10.0531 246.608 9.11383C264.107 10.0887 281.595 11.1825 299.096 12.1099C306.479 12.4998 313.865 12.8232 321.246 13.2203C324.28 13.382 332.086 14.0597 333.218 13.8076C334.098 13.6103 334.309 12.9802 334.362 12.6639C334.416 12.3215 334.383 11.8959 333.984 11.4893C333.86 11.3609 333.489 11.0946 332.728 10.8758C312.148 4.98118 278.45 5.0739 246.889 6.49822C240.1 6.11777 233.311 5.75634 226.52 5.43058C210.974 4.68157 195.257 3.93016 179.449 3.33808C223.998 2.23715 268.567 2.55341 313.149 3.34999C331.867 3.68526 382.322 5.70642 402.194 7.49216C401.951 7.74184 401.809 8.08899 401.825 8.46707C401.859 9.18992 402.475 9.75109 403.2 9.7178C407.299 9.52758 409.67 9.28504 410.609 9.03537C411.194 8.88081 411.513 8.63352 411.66 8.47183C412.022 8.08186 412.088 7.66335 412.017 7.26625C411.972 7.01896 411.86 6.74789 411.603 6.49822C411.432 6.32702 411.013 6.06547 410.3 5.88713C402.489 3.94445 335.484 1.12195 313.197 0.722479C254.301 -0.328519 195.428 -0.542502 136.601 2.23004ZM316.797 10.3574C305.288 8.79519 291.796 8.24592 277.722 8.28159C284.891 8.69771 292.063 9.10433 299.237 9.48478C305.088 9.79628 310.943 10.0626 316.797 10.3574ZM82.3197 5.6232C67.2205 6.73602 52.138 7.93919 37.0435 9.27077C35.3006 9.42295 33.56 9.57276 31.8171 9.72018C48.5094 7.67525 65.3753 6.37459 82.3197 5.6232Z" fill="#DC8E00"/>
</svg>
