<svg width="21" height="39" viewBox="0 0 21 39" fill="none" xmlns="http://www.w3.org/2000/svg">
<path d="M20.2543 0.289939C18.525 0.0912153 16.787 -0.00549354 15.048 0.000240743C9.28286 0.000240743 5.7 3.97803 5.7 10.3811V14.7284H0.857143C0.629814 14.7284 0.411796 14.8263 0.251051 15.0004C0.0903052 15.1745 0 15.4107 0 15.657V22.8066C0 23.0528 0.0903052 23.289 0.251051 23.4631C0.411796 23.6373 0.629814 23.7351 0.857143 23.7351H5.7V38.0715C5.7 38.3177 5.79031 38.5539 5.95105 38.728C6.1118 38.9022 6.32982 39 6.55714 39H13.3766C13.6039 39 13.8219 38.9022 13.9827 38.728C14.1434 38.5539 14.2337 38.3177 14.2337 38.0715V23.7351H19.0611C19.2692 23.7352 19.4703 23.6533 19.6267 23.5047C19.7832 23.356 19.8844 23.1508 19.9114 22.9273L20.7634 15.7777C20.7793 15.6466 20.7691 15.5134 20.7337 15.387C20.6982 15.2605 20.6382 15.1437 20.5577 15.0444C20.4772 14.9451 20.3781 14.8655 20.2669 14.811C20.1558 14.7565 20.0352 14.7284 19.9131 14.7284H14.2337V11.0905C14.2337 9.28917 14.568 8.53707 16.6474 8.53707H20.1429C20.3702 8.53707 20.5882 8.43924 20.749 8.26511C20.9097 8.09098 21 7.85481 21 7.60855V1.21103C21.0001 0.985603 20.9245 0.767833 20.7873 0.598349C20.6501 0.428865 20.4606 0.319245 20.2543 0.289939ZM19.2857 6.67817L16.6457 6.68002C12.948 6.68002 12.5194 9.19817 12.5194 11.0905V15.6588C12.5194 15.9048 12.6095 16.1407 12.7699 16.3147C12.9302 16.4888 13.1478 16.5869 13.3749 16.5873H18.9394L18.3069 21.8799H13.3766C13.1492 21.8799 12.9312 21.9777 12.7705 22.1519C12.6097 22.326 12.5194 22.5622 12.5194 22.8084V37.1411H7.41429V22.8084C7.41429 22.5622 7.32398 22.326 7.16324 22.1519C7.00249 21.9777 6.78447 21.8799 6.55714 21.8799H1.716V16.5873H6.55714C6.78447 16.5873 7.00249 16.4895 7.16324 16.3154C7.32398 16.1413 7.41429 15.9051 7.41429 15.6588V10.3811C7.41429 5.04397 10.2686 1.85728 15.048 1.85728C16.7777 1.85728 18.3394 1.95942 19.2857 2.04856V6.67817Z" fill="black"/>
</svg>
