<svg  viewBox="0 0 48 49" fill="none" xmlns="http://www.w3.org/2000/svg">
<path d="M6 14.5C6 10.7288 6 8.84315 7.17157 7.67157C8.34315 6.5 10.2288 6.5 14 6.5H34C37.7712 6.5 39.6569 6.5 40.8284 7.67157C42 8.84315 42 10.7288 42 14.5V34.5C42 38.2712 42 40.1569 40.8284 41.3284C39.6569 42.5 37.7712 42.5 34 42.5H14C10.2288 42.5 8.34315 42.5 7.17157 41.3284C6 40.1569 6 38.2712 6 34.5V14.5Z" stroke="#222222" stroke-width="2"/>
<circle cx="33" cy="15.5" r="3" fill="#222222"/>
<circle cx="24" cy="24.5" r="7" stroke="#222222" stroke-width="2"/>
</svg>
